<svg width="18" height="18" viewBox="0 0 18 18" fill="none" xmlns="http://www.w3.org/2000/svg">
<path d="M6.3512 6.29617L6.3497 6.29692L6.34745 6.29842L6.3512 6.29617ZM13.8167 6.15592C13.7645 6.10558 13.7066 6.06153 13.6442 6.02467C13.5558 5.97264 13.4577 5.93928 13.3559 5.92667C13.2541 5.91406 13.1508 5.92246 13.0524 5.95135C12.954 5.98024 12.8626 6.02901 12.7838 6.09464C12.7049 6.16027 12.6404 6.24137 12.5942 6.33292C12.3359 6.84211 11.9796 7.29528 11.5457 7.66642C11.6122 7.29258 11.6458 6.91363 11.6462 6.53392C11.6476 5.37903 11.343 4.24437 10.7633 3.24549C10.1837 2.24661 9.34964 1.41917 8.3462 0.847422C8.23562 0.784593 8.11088 0.750916 7.98371 0.749555C7.85654 0.748194 7.73111 0.779194 7.61921 0.839642C7.50732 0.90009 7.41263 0.987999 7.34406 1.09511C7.27548 1.20221 7.23527 1.325 7.2272 1.45192C7.18521 2.163 6.9993 2.85815 6.68075 3.49526C6.36219 4.13237 5.91761 4.69818 5.37395 5.15842L5.20145 5.29867C4.63266 5.68136 4.12921 6.15315 3.71045 6.69592C3.05965 7.51576 2.60884 8.47595 2.39376 9.50036C2.17868 10.5248 2.20525 11.5852 2.47137 12.5975C2.73748 13.6099 3.23582 14.5463 3.92686 15.3325C4.61789 16.1187 5.48262 16.7331 6.45245 17.1269C6.56631 17.1733 6.68982 17.1909 6.81211 17.1783C6.93439 17.1657 7.05171 17.1232 7.15372 17.0546C7.25574 16.986 7.33932 16.8934 7.39712 16.7849C7.45492 16.6764 7.48517 16.5554 7.4852 16.4324C7.48457 16.353 7.47193 16.2741 7.4477 16.1984C7.27989 15.5677 7.23156 14.9112 7.3052 14.2627C8.01505 15.6011 9.15436 16.662 10.5399 17.2747C10.709 17.3502 10.9001 17.3604 11.0762 17.3032C12.1708 16.9498 13.1569 16.3224 13.9408 15.4807C14.7246 14.6389 15.2803 13.6107 15.5549 12.4937C15.8295 11.3768 15.8139 10.2081 15.5097 9.09887C15.2055 7.9896 14.6227 6.97654 13.8167 6.15592V6.15592ZM10.8879 15.7792C10.2342 15.4479 9.65742 14.9827 9.19522 14.4139C8.73301 13.8451 8.39569 13.1854 8.2052 12.4777C8.14695 12.2393 8.10189 11.998 8.0702 11.7547C8.04885 11.5997 7.97962 11.4554 7.87217 11.3417C7.76472 11.2281 7.62444 11.1509 7.47095 11.1209C7.42375 11.1118 7.37577 11.1072 7.3277 11.1074C7.19592 11.1073 7.06644 11.1419 6.95228 11.2077C6.83813 11.2736 6.74333 11.3683 6.67745 11.4824C6.05528 12.5559 5.74248 13.7806 5.7737 15.0209C5.22631 14.5954 4.76883 14.0656 4.42776 13.462C4.08669 12.8584 3.86882 12.1931 3.78678 11.5047C3.70473 10.8162 3.76015 10.1184 3.94982 9.45153C4.13949 8.78468 4.45963 8.16212 4.8917 7.61992C5.21976 7.1938 5.61552 6.82439 6.0632 6.52642C6.08279 6.51386 6.10157 6.50008 6.11945 6.48517C6.11945 6.48517 6.34145 6.30142 6.34895 6.29767C7.41785 5.39396 8.17817 4.17927 8.52395 2.82292C9.34102 3.57845 9.88577 4.58262 10.0736 5.6795C10.2614 6.77638 10.0818 7.90458 9.5627 8.88892C9.49399 9.02031 9.46577 9.1691 9.4816 9.31652C9.49743 9.46393 9.55659 9.60335 9.65161 9.71716C9.74664 9.83096 9.87326 9.91405 10.0155 9.95593C10.1577 9.9978 10.3092 9.99658 10.4507 9.95242C11.5995 9.59214 12.6103 8.88857 13.3472 7.93642C13.7902 8.5906 14.0799 9.33633 14.1946 10.118C14.3093 10.8997 14.2461 11.6972 14.0097 12.4511C13.7733 13.205 13.3698 13.8958 12.8293 14.472C12.2888 15.0483 11.6252 15.4951 10.8879 15.7792V15.7792Z" fill="#313333"/>
</svg>
